<?xml version="1.0" encoding="utf-8"?>
<!-- Generator: Adobe Illustrator 21.0.0, SVG Export Plug-In . SVG Version: 6.00 Build 0)  -->
<svg version="1.1" id="Шар_1" xmlns="http://www.w3.org/2000/svg" xmlns:xlink="http://www.w3.org/1999/xlink" x="0px" y="0px"
	 viewBox="0 0 285 62" style="enable-background:new 0 0 285 62;" xml:space="preserve">
<style type="text/css">
	.st0{fill:#FFFFFF;}
	.st1{fill:none;stroke:#FFFFFF;stroke-miterlimit:10;}
</style>
<g id="Layer_1">
	<path class="st0" d="M65,15.8"/>
	<ellipse transform="matrix(0.5131 -0.8583 0.8583 0.5131 -10.5792 35.4304)" class="st0" cx="25.9" cy="27" rx="1.6" ry="1.6"/>
	<ellipse transform="matrix(0.5131 -0.8583 0.8583 0.5131 -12.2459 26.2247)" class="st0" cx="17" cy="23.9" rx="1.6" ry="1.6"/>
	<ellipse transform="matrix(0.5131 -0.8583 0.8583 0.5131 -29.7511 35.7029)" class="st0" cx="16.6" cy="44.1" rx="1.6" ry="1.6"/>
	<ellipse transform="matrix(0.5131 -0.8583 0.8583 0.5131 -26.1705 74.3237)" class="st0" cx="52.4" cy="60.2" rx="1.6" ry="1.6"/>
	<ellipse transform="matrix(0.5131 -0.8583 0.8583 0.5131 13.9578 66.4361)" class="st0" cx="65.5" cy="20.9" rx="1.6" ry="1.6"/>
	<polyline class="st1" points="27.6,26.7 65.3,20.8 52.4,60.2 16.6,44.1 17,23.9 26,27 51.7,59.3 	"/>
	<line class="st1" x1="25.6" y1="27.5" x2="16.6" y2="44.1"/>
	<ellipse transform="matrix(0.5131 -0.8583 0.8583 0.5131 8.7361 18.2888)" class="st0" cx="20.5" cy="1.4" rx="1.6" ry="1.6"/>
	<path class="st0" d="M6.1,53.5"/>
	<polyline class="st1" points="35.9,15.5 20.5,1.4 1.6,33.9 	"/>
	<path class="st0" d="M18.8,24.9"/>
	<ellipse transform="matrix(0.5131 -0.8583 0.8583 0.5131 -28.3528 17.8568)" class="st0" cx="1.6" cy="33.9" rx="1.6" ry="1.6"/>
	<ellipse transform="matrix(0.5131 -0.8583 0.8583 0.5131 4.0993 38.0501)" class="st0" cx="35.6" cy="15.4" rx="1.6" ry="1.6"/>
	<line class="st1" x1="17" y1="23.9" x2="35.6" y2="15.4"/>
	<g>
		<path class="st0" d="M69,49.9V29c0-0.2,0.1-0.5,0.2-0.6c0.2-0.2,0.4-0.2,0.6-0.2h5.7c2.1,0,3.8,0.5,5,1.4c1.3,1,1.9,2.6,1.9,4.7
			c0,3.5-1.5,5.5-4.7,6.1l4.6,8.8c0.1,0.2,0.2,0.3,0.2,0.4c0,0.3-0.2,0.6-0.5,0.9c-0.3,0.2-0.7,0.4-1,0.4c-0.4,0-0.8-0.3-1.2-1
			l-4.7-9.2h-3.6v9.2c0,0.3-0.2,0.5-0.4,0.7c-0.2,0.2-0.6,0.2-0.9,0.2c-0.3,0-0.6-0.1-0.9-0.2C69.1,50.4,69,50.2,69,49.9z
			 M71.5,38.6h4c2.9,0,4.3-1.4,4.3-4.1s-1.4-4-4.3-4h-4V38.6z"/>
		<path class="st0" d="M86.1,45v-3.3c0-1.6,0.6-3,1.8-4.2c1.2-1.1,2.6-1.8,4.3-1.8c1.6,0,3,0.6,4.2,1.6c1.2,1,1.8,2.4,1.8,4.1
			c0,0.6-0.1,1.1-0.2,1.4c-0.2,0.4-0.4,0.6-0.6,0.8c-0.3,0.2-0.6,0.2-0.8,0.3c-0.2,0.1-0.6,0.1-1,0.1h-6.8v1c0,1.1,0.4,2.1,1.2,2.7
			c0.8,0.7,1.8,1,3.2,1c0.7,0,1.3-0.1,1.8-0.3c0.5-0.2,0.9-0.4,1.2-0.6c0.3-0.2,0.6-0.3,0.7-0.3c0.3,0,0.6,0.2,0.7,0.4
			c0.2,0.2,0.3,0.6,0.3,0.8c0,0.5-0.5,1-1.4,1.4c-1,0.5-2.1,0.7-3.5,0.7c-2,0-3.7-0.6-5-1.7C86.7,48.3,86.1,46.9,86.1,45z
			 M88.6,42.5h5.8c0.6,0,0.9-0.1,1.1-0.2c0.2-0.2,0.2-0.4,0.2-0.8c0-1-0.3-1.8-1-2.5c-0.7-0.7-1.5-1-2.5-1c-1,0-1.8,0.3-2.5,1
			c-0.7,0.6-1,1.4-1,2.4L88.6,42.5L88.6,42.5z"/>
		<path class="st0" d="M102.6,46.2V30.1c0-0.2,0.2-0.5,0.4-0.6c0.2-0.2,0.6-0.2,0.9-0.2c0.3,0,0.6,0.1,0.9,0.2
			c0.2,0.2,0.4,0.4,0.4,0.6V36h3.9c0.2,0,0.4,0.1,0.6,0.3c0.2,0.2,0.2,0.5,0.2,0.7c0,0.2-0.1,0.5-0.2,0.7c-0.2,0.2-0.3,0.3-0.6,0.3
			h-3.9v8c0,0.9,0.2,1.5,0.6,1.8c0.4,0.3,1,0.6,2,0.6h1c0.3,0,0.6,0.1,0.8,0.3c0.2,0.2,0.3,0.5,0.3,0.8s-0.1,0.6-0.3,0.8
			c-0.2,0.2-0.5,0.3-0.8,0.3h-1C104.3,50.8,102.6,49.3,102.6,46.2z"/>
		<path class="st0" d="M113,45v-3.2c0-1.6,0.6-3,1.8-4.2s2.6-1.8,4.3-1.8c1.7,0,3.1,0.6,4.3,1.8s1.8,2.6,1.8,4.2V45
			c0,1.6-0.6,3-1.8,4.2s-2.6,1.8-4.3,1.8c-1.6,0-3-0.6-4.3-1.8C113.6,48.1,113,46.6,113,45z M115.6,45c0,1,0.3,1.8,1,2.6
			c0.7,0.7,1.5,1.1,2.5,1.1c1,0,1.8-0.4,2.5-1.1c0.7-0.7,1-1.6,1-2.6v-3.1c0-1-0.3-1.8-1-2.5c-0.7-0.7-1.5-1.1-2.5-1.1
			c-1,0-1.8,0.4-2.5,1.1c-0.7,0.7-1,1.6-1,2.5V45z"/>
		<path class="st0" d="M129.8,45.1V37c0-0.2,0.2-0.5,0.4-0.6c0.2-0.2,0.6-0.2,0.9-0.2s0.6,0.1,0.9,0.3c0.2,0.2,0.4,0.4,0.4,0.6v8.1
			c0,1,0.3,1.8,1,2.5c0.7,0.7,1.5,1.1,2.5,1.1c1,0,1.8-0.4,2.5-1.1c0.7-0.7,1-1.6,1-2.6V37c0-0.2,0.2-0.4,0.4-0.6
			c0.2-0.2,0.6-0.2,0.9-0.2c0.4,0,0.6,0.1,0.9,0.2c0.2,0.2,0.3,0.4,0.3,0.6v8.1c0,1.6-0.6,3-1.8,4.2c-1.2,1.2-2.6,1.8-4.3,1.8
			s-3.1-0.6-4.3-1.8C130.5,48.1,129.8,46.7,129.8,45.1z"/>
		<path class="st0" d="M146.7,45v-3.1c0-1.8,0.6-3.2,1.6-4.3s2.6-1.7,4.7-1.7c1.3,0,2.4,0.2,3.2,0.7c0.9,0.5,1.3,1,1.3,1.4
			c0,0.3-0.1,0.6-0.3,0.9c-0.2,0.2-0.5,0.4-0.7,0.4c-0.1,0-0.4-0.2-1-0.6c-0.6-0.3-1.4-0.6-2.2-0.6c-1.2,0-2.2,0.3-2.8,1
			c-0.6,0.6-1,1.5-1,2.7V45c0,2.5,1.3,3.7,3.9,3.7c0.9,0,1.6-0.2,2.2-0.6s1-0.6,1.1-0.6c0.3,0,0.6,0.2,0.8,0.4
			c0.2,0.2,0.3,0.6,0.3,0.8c0,0.5-0.5,1-1.4,1.5c-0.9,0.5-2,0.7-3.4,0.7c-2.1,0-3.6-0.6-4.7-1.7C147.2,48.3,146.7,46.9,146.7,45z"/>
		<path class="st0" d="M161.8,49.9V28.2c0-0.2,0.1-0.5,0.3-0.6c0.2-0.2,0.6-0.2,0.9-0.2c0.4,0,0.7,0.1,1,0.2
			c0.2,0.2,0.4,0.4,0.4,0.6v10.2c0.3-0.6,0.9-1.2,1.6-1.7s1.5-0.7,2.5-0.7c1.4,0,2.7,0.6,3.9,1.8s1.6,2.6,1.6,4.3v8
			c0,0.3-0.2,0.5-0.4,0.7c-0.2,0.2-0.6,0.2-0.9,0.2s-0.6-0.1-0.9-0.2c-0.2-0.2-0.4-0.4-0.4-0.7v-8c0-1-0.3-1.8-1-2.5
			c-0.7-0.7-1.5-1.1-2.5-1.1c-0.9,0-1.7,0.3-2.3,1c-0.7,0.6-1,1.5-1,2.7v8c0,0.2-0.2,0.4-0.4,0.6c-0.2,0.2-0.6,0.3-0.9,0.3
			s-0.6-0.1-0.9-0.2C161.9,50.4,161.8,50.2,161.8,49.9z"/>
		<path class="st0" d="M178.4,45v-3.3c0-1.6,0.6-3,1.8-4.2c1.2-1.1,2.6-1.8,4.3-1.8c1.6,0,3,0.6,4.2,1.6c1.2,1,1.8,2.4,1.8,4.1
			c0,0.6-0.1,1.1-0.2,1.4c-0.2,0.4-0.4,0.6-0.6,0.8c-0.3,0.2-0.6,0.2-0.8,0.3c-0.2,0.1-0.6,0.1-1,0.1H181v1c0,1.1,0.4,2.1,1.2,2.7
			c0.8,0.7,1.8,1,3.2,1c0.7,0,1.3-0.1,1.8-0.3s0.9-0.4,1.2-0.6c0.3-0.2,0.6-0.3,0.7-0.3c0.3,0,0.6,0.2,0.7,0.4
			c0.2,0.2,0.3,0.6,0.3,0.8c0,0.5-0.5,1-1.4,1.4c-1,0.5-2.1,0.7-3.5,0.7c-2,0-3.7-0.6-5-1.7C179.1,48.3,178.4,46.9,178.4,45z
			 M181,42.5h5.8c0.6,0,0.9-0.1,1.1-0.2c0.2-0.2,0.2-0.4,0.2-0.8c0-1-0.3-1.8-1-2.5c-0.7-0.7-1.5-1-2.5-1c-1,0-1.8,0.3-2.5,1
			c-0.7,0.6-1,1.4-1,2.4L181,42.5L181,42.5z"/>
		<path class="st0" d="M195,49.9V37c0-0.2,0.1-0.5,0.3-0.6c0.2-0.2,0.6-0.2,0.9-0.2s0.6,0.1,0.8,0.2c0.2,0.2,0.3,0.4,0.3,0.6v1.4
			c0.4-0.7,0.9-1.3,1.7-1.8c0.7-0.5,1.5-0.7,2.4-0.7h1c0.2,0,0.5,0.2,0.7,0.4c0.2,0.2,0.3,0.5,0.3,0.8s-0.1,0.6-0.3,0.8
			c-0.2,0.2-0.4,0.3-0.7,0.3h-1c-1,0-2,0.4-2.7,1.3c-0.8,0.9-1.2,1.9-1.2,3.3v7.1c0,0.2-0.2,0.4-0.4,0.6c-0.2,0.2-0.6,0.3-0.9,0.3
			s-0.6-0.1-0.9-0.2S195,50.2,195,49.9z"/>
		<path class="st0" d="M205.2,49.6c0-0.4,0.2-0.8,0.5-1c0.3-0.3,0.7-0.4,1.1-0.4c0.4,0,0.8,0.2,1.1,0.4c0.3,0.3,0.5,0.6,0.5,1
			s-0.2,0.7-0.5,1s-0.7,0.4-1.1,0.4c-0.5,0-0.8-0.2-1.1-0.4C205.3,50.3,205.2,50,205.2,49.6z"/>
		<path class="st0" d="M212,48.7c0-0.2,0.1-0.6,0.2-0.8c0.2-0.2,0.4-0.4,0.6-0.4c0.2,0,0.4,0.2,0.7,0.4s0.7,0.5,1.4,0.7
			c0.6,0.2,1.3,0.4,2.1,0.4c1,0,1.8-0.2,2.2-0.6c0.5-0.4,0.7-0.9,0.7-1.4c0-0.7-0.2-1.2-0.8-1.7c-0.5-0.4-1.1-0.7-1.9-1
			c-0.7-0.2-1.5-0.4-2.2-0.7c-0.7-0.2-1.4-0.6-1.9-1.3c-0.5-0.6-0.8-1.4-0.8-2.3c0-1.2,0.4-2.2,1.3-3.1c0.8-0.9,2.1-1.3,3.9-1.3
			c1.1,0,2.1,0.2,3,0.5c0.9,0.3,1.4,0.7,1.4,1.1c0,0.2-0.1,0.6-0.3,0.8c-0.2,0.3-0.4,0.5-0.7,0.5c-0.1,0-0.5-0.2-1.2-0.5
			c-0.7-0.3-1.4-0.5-2.2-0.5c-1,0-1.7,0.2-2.2,0.6c-0.5,0.5-0.7,1-0.7,1.5c0,0.6,0.2,1,0.8,1.4c0.5,0.3,1.1,0.6,1.9,0.8
			c0.7,0.2,1.5,0.4,2.2,0.7c0.7,0.2,1.4,0.7,1.9,1.4c0.5,0.6,0.8,1.5,0.8,2.6c0,1.3-0.5,2.3-1.4,3.1c-0.9,0.7-2.2,1.1-3.9,1.1
			c-1.4,0-2.6-0.2-3.6-0.7C212.5,49.9,212,49.3,212,48.7z"/>
		<path class="st0" d="M226.7,57.1V37c0-0.2,0.1-0.5,0.3-0.6c0.2-0.2,0.6-0.2,0.9-0.2c0.3,0,0.6,0.1,0.9,0.2
			c0.2,0.2,0.3,0.4,0.3,0.6v1.3c0.4-0.6,0.9-1.2,1.7-1.7c0.7-0.5,1.6-0.7,2.5-0.7c1.5,0,2.9,0.6,3.9,1.8c1.1,1.2,1.6,2.6,1.6,4.3
			v3.2c0,1.6-0.6,3-1.7,4.2c-1.1,1.2-2.4,1.8-3.9,1.8c-0.9,0-1.8-0.2-2.5-0.7c-0.7-0.5-1.3-1-1.7-1.8v8.4c0,0.2-0.2,0.5-0.4,0.6
			c-0.2,0.2-0.6,0.3-0.9,0.3s-0.6-0.1-0.9-0.2C226.8,57.5,226.7,57.3,226.7,57.1z M229.3,45.9c0,0.5,0.3,1.1,1,1.8
			c0.7,0.7,1.5,1,2.4,1c1,0,1.8-0.4,2.5-1.1s1-1.6,1-2.6V42c0-1-0.3-1.8-1-2.5c-0.7-0.7-1.5-1.1-2.6-1.1c-0.9,0-1.7,0.3-2.4,1
			c-0.7,0.6-1,1.5-1,2.7L229.3,45.9L229.3,45.9z"/>
		<path class="st0" d="M242.6,47c0-1.6,0.6-2.7,1.8-3.4c1.2-0.6,3-1,5.4-1h1.5V42c0-1-0.3-1.9-0.9-2.7c-0.6-0.8-1.4-1.1-2.6-1.1
			c-0.9,0-1.6,0.2-2.3,0.5c-0.6,0.3-1,0.5-1.1,0.5c-0.3,0-0.6-0.2-0.7-0.4c-0.2-0.2-0.2-0.6-0.2-0.9c0-0.5,0.5-0.9,1.4-1.3
			c1-0.4,1.9-0.6,3-0.6c2,0,3.5,0.6,4.5,1.8c1,1.1,1.4,2.6,1.4,4.3v8c0,0.2-0.1,0.5-0.3,0.6c-0.2,0.2-0.6,0.2-0.9,0.2
			s-0.6-0.1-0.8-0.2c-0.2-0.2-0.3-0.4-0.3-0.6v-1.2c-1.4,1.6-3,2.4-4.7,2.4c-1.2,0-2.2-0.3-3-1C243,49.4,242.6,48.3,242.6,47z
			 M245.2,46.7c0,0.8,0.2,1.4,0.6,1.8c0.4,0.4,1,0.6,1.8,0.6c0.9,0,1.7-0.3,2.6-1c0.8-0.7,1.2-1.4,1.2-2.2v-1.6h-1.1
			c-0.6,0-1.1,0-1.5,0.1c-0.4,0-0.9,0.1-1.4,0.2c-0.5,0.1-0.9,0.2-1.1,0.4c-0.3,0.2-0.6,0.4-0.7,0.7
			C245.3,45.9,245.2,46.2,245.2,46.7z"/>
		<path class="st0" d="M258.6,45v-3.1c0-1.8,0.6-3.2,1.6-4.3s2.6-1.7,4.7-1.7c1.3,0,2.4,0.2,3.2,0.7c0.9,0.5,1.3,1,1.3,1.4
			c0,0.3-0.1,0.6-0.3,0.9c-0.2,0.2-0.5,0.4-0.7,0.4c-0.1,0-0.4-0.2-1-0.6c-0.6-0.3-1.4-0.6-2.2-0.6c-1.2,0-2.2,0.3-2.8,1
			c-0.6,0.6-1,1.5-1,2.7V45c0,2.5,1.3,3.7,3.9,3.7c0.9,0,1.6-0.2,2.2-0.6s1-0.6,1.1-0.6c0.3,0,0.6,0.2,0.8,0.4
			c0.2,0.2,0.3,0.6,0.3,0.8c0,0.5-0.5,1-1.4,1.5c-0.9,0.5-2,0.7-3.4,0.7c-2.1,0-3.6-0.6-4.7-1.7C259,48.3,258.6,46.9,258.6,45z"/>
		<path class="st0" d="M272.8,45v-3.3c0-1.6,0.6-3,1.8-4.2c1.2-1.1,2.6-1.8,4.3-1.8c1.6,0,3,0.6,4.2,1.6c1.2,1,1.8,2.4,1.8,4.1
			c0,0.6-0.1,1.1-0.2,1.4c-0.2,0.4-0.4,0.6-0.6,0.8c-0.3,0.2-0.6,0.2-0.8,0.3c-0.2,0.1-0.6,0.1-1,0.1h-6.8v1c0,1.1,0.4,2.1,1.2,2.7
			c0.8,0.7,1.8,1,3.2,1c0.7,0,1.3-0.1,1.8-0.3s0.9-0.4,1.2-0.6c0.3-0.2,0.6-0.3,0.7-0.3c0.3,0,0.6,0.2,0.7,0.4
			c0.2,0.2,0.3,0.6,0.3,0.8c0,0.5-0.5,1-1.4,1.4c-1,0.5-2.1,0.7-3.5,0.7c-2,0-3.7-0.6-5-1.7C273.5,48.3,272.8,46.9,272.8,45z
			 M275.4,42.5h5.8c0.6,0,0.9-0.1,1.1-0.2c0.2-0.2,0.2-0.4,0.2-0.8c0-1-0.3-1.8-1-2.5s-1.5-1-2.5-1s-1.8,0.3-2.5,1
			c-0.7,0.6-1,1.4-1,2.4L275.4,42.5L275.4,42.5z"/>
	</g>
</g>
<g id="Layer_2">
</g>
</svg>
